<svg width="200" height="200" viewBox="0 0 200 200" fill="none" xmlns="http://www.w3.org/2000/svg">
<rect width="200" height="200" rx="20" fill="#3B82F6"/>
<path d="M56.853 94.18L58.593 91H38.733V90.4C38.973 87.2 39.093 84 39.093 80.8V58C38.693 58 37.953 58.12 36.873 58.36C35.793 58.56 34.613 58.84 33.333 59.2L33.093 58.84L34.473 49H52.053V49.6C51.813 52.76 51.693 55.96 51.693 59.2V81.22H53.013C55.133 81.22 56.913 80.98 58.353 80.5C59.793 79.98 61.033 79.12 62.073 77.92C63.153 76.72 64.113 75.06 64.953 72.94L65.193 72.34L72.453 74.8L67.353 94.6H57.213L56.853 94.18ZM94.9445 91.9C90.6645 91.9 86.8645 90.98 83.5445 89.14C80.2245 87.3 77.6445 84.72 75.8045 81.4C73.9645 78.08 73.0445 74.28 73.0445 70C73.0445 65.72 73.9645 61.92 75.8045 58.6C77.6445 55.28 80.2245 52.7 83.5445 50.86C86.8645 49.02 90.6645 48.1 94.9445 48.1C99.2245 48.1 103.025 49.02 106.345 50.86C109.665 52.7 112.245 55.28 114.085 58.6C115.925 61.92 116.845 65.72 116.845 70C116.845 74.28 115.925 78.08 114.085 81.4C112.245 84.72 109.665 87.3 106.345 89.14C103.025 90.98 99.2245 91.9 94.9445 91.9ZM94.9445 81.7C96.7045 81.7 98.2245 81.22 99.5045 80.26C100.825 79.3 101.845 77.94 102.565 76.18C103.285 74.42 103.645 72.36 103.645 70C103.645 67.64 103.285 65.58 102.565 63.82C101.845 62.06 100.825 60.7 99.5045 59.74C98.2245 58.78 96.7045 58.3 94.9445 58.3C93.1845 58.3 91.6445 58.78 90.3245 59.74C89.0445 60.7 88.0445 62.06 87.3245 63.82C86.6045 65.58 86.2445 67.64 86.2445 70C86.2445 72.36 86.6045 74.42 87.3245 76.18C88.0445 77.94 89.0445 79.3 90.3245 80.26C91.6445 81.22 93.1845 81.7 94.9445 81.7ZM125.159 90.4C125.159 89.8 125.219 87.94 125.339 84.82C125.459 83.5 125.519 82.16 125.519 80.8V58C124.999 58 124.139 58.14 122.939 58.42C121.739 58.7 120.679 58.96 119.759 59.2L119.519 58.84L120.899 49H138.059V49.6C137.859 52.12 137.759 53.94 137.759 55.06C137.719 55.98 137.699 57.36 137.699 59.2V64.9H143.279L145.139 62.14C145.579 61.46 146.019 60.78 146.459 60.1C146.939 59.38 147.399 58.68 147.839 58C147.399 58 146.939 58.02 146.459 58.06C146.019 58.06 145.579 58.06 145.139 58.06L142.379 58.18L142.139 57.82L145.079 49H165.599V49.6C164.919 50.56 164.219 51.52 163.499 52.48C162.819 53.44 162.139 54.38 161.459 55.3C160.779 56.26 160.079 57.22 159.359 58.18C158.679 59.14 157.999 60.1 157.319 61.06L152.459 67.84L161.099 81.28C162.899 84.16 164.939 87.1 167.219 90.1V91H144.599L142.799 83.08L142.979 82.66C143.419 82.7 143.859 82.74 144.299 82.78C144.739 82.78 145.179 82.8 145.619 82.84C146.059 82.88 146.479 82.92 146.879 82.96C147.319 83 147.759 83.04 148.199 83.08L143.399 75.1H137.699V80.8C137.699 82.64 137.719 84.02 137.759 84.94C137.759 86.06 137.859 87.88 138.059 90.4V91H125.159V90.4ZM32.3875 163.72C30.2675 163.72 28.4875 163 27.0475 161.56C25.6075 160.12 24.8875 158.34 24.8875 156.22C24.8875 154.1 25.6075 152.32 27.0475 150.88C28.4875 149.44 30.2675 148.72 32.3875 148.72C34.5075 148.72 36.2875 149.44 37.7275 150.88C39.1675 152.32 39.8875 154.1 39.8875 156.22C39.8875 158.34 39.1675 160.12 37.7275 161.56C36.2875 163 34.5075 163.72 32.3875 163.72ZM59.5581 138.22V154C60.1981 154 61.3181 153.86 62.9181 153.58C64.5181 153.3 65.7581 153.04 66.6381 152.8L66.8781 153.16L65.4981 163H46.9581V162.4C47.5981 159.72 48.1581 156.36 48.6381 152.32C49.1181 148.28 49.3581 143.36 49.3581 137.56V130.18C47.4781 129.98 45.5181 129.92 43.4781 130C43.3181 130 43.1581 130 42.9981 130C42.8381 130 42.6981 130 42.5781 130L44.5581 120.22C46.8781 120.42 49.3381 120.6 51.9381 120.76C54.5381 120.92 56.7781 121 58.6581 121H61.7781C62.3781 121.76 62.9581 122.52 63.5181 123.28C64.0781 124 64.6381 124.74 65.1981 125.5C65.7981 126.22 66.3981 126.94 66.9981 127.66C67.5981 128.38 68.1981 129.12 68.7981 129.88L76.1781 138.58V130C75.3781 130 74.5981 130 73.8381 130C73.1181 130 72.3981 130 71.6781 130L71.4381 129.64L72.6381 121H88.2381V121.6C88.0381 122.52 87.8181 123.74 87.5781 125.26C87.3381 126.78 87.1181 128.54 86.9181 130.54C86.4781 135.54 86.2581 140.52 86.2581 145.48V166.6H85.0581L59.5581 138.22ZM117.294 166.18L118.974 163H97.8541V162.4C98.0941 159.48 98.2141 156.28 98.2141 152.8V130C97.6941 130 96.8341 130.14 95.6341 130.42C94.4341 130.7 93.3741 130.96 92.4541 131.2L92.2141 130.84L93.5941 121H116.454L114.774 117.82L115.134 117.4H125.274L130.134 136L123.654 138.22L123.354 137.74C122.034 135.62 120.734 133.98 119.454 132.82C118.214 131.62 116.894 130.78 115.494 130.3C114.134 129.82 112.594 129.58 110.874 129.58H110.094V137.2H113.274C113.354 137.2 113.394 137.16 113.394 137.08V135.64H120.234L118.674 149.8H113.394V146.92C113.394 146.84 113.354 146.8 113.274 146.8H110.094V154.36H112.674C114.994 154.36 116.854 154.08 118.254 153.52C119.694 152.96 120.954 152.08 122.034 150.88C123.114 149.68 124.434 147.84 125.994 145.36L126.174 145.06L126.474 144.58L132.834 146.8L127.794 166.6H117.654L117.294 166.18ZM170.275 138.88L170.035 138.34C169.275 136.66 168.375 135.16 167.335 133.84C166.335 132.48 165.295 131.42 164.215 130.66C163.175 129.9 162.195 129.52 161.275 129.52H161.155V154C161.995 154 163.455 153.86 165.535 153.58C167.655 153.26 169.115 153 169.915 152.8L170.155 153.16L168.775 163H148.195V162.4C148.435 159.48 148.555 156.28 148.555 152.8V129.52H148.435C147.635 129.52 146.715 129.86 145.675 130.54C144.675 131.18 143.635 132.16 142.555 133.48C141.475 134.8 140.515 136.42 139.675 138.34L139.435 138.88L131.875 136L136.735 117.4H146.875L147.235 117.82L145.555 121H164.155L162.475 117.82L162.835 117.4H172.975L177.835 136L170.275 138.88Z" fill="white"/>
</svg>
